PathFileType	4	(X/Y/Z)	SUBJ94_1_walk_RCNL2025.trc
DataRate	CameraRate	NumFrames	NumMarkers	Units	OrigDataRate	OrigDataStartFrame	OrigNumFrames
100	100	13	25	mm	100	48	382
Frame#	Time	R_Shoulder			L_Shoulder			C7			J_Notch			R_Elbow			L_Elbow			R_Wrist			L_Wrist			R_Asis			L_Asis			Sacral			Thoracic			Sternum			R_Thigh_Lateral			R_Knee_Lateral			R_Shank_Lateral			R_Ankle_Lateral			R_Heel			R_Toe			L_Thigh_Lateral			L_Knee_Lateral			L_Shank_Lateral			L_Ankle_Lateral			L_Heel			L_Toe		
		X1	Y1	Z1	X2	Y2	Z2	X3	Y3	Z3	X4	Y4	Z4	X5	Y5	Z5	X6	Y6	Z6	X7	Y7	Z7	X8	Y8	Z8	X9	Y9	Z9	X10	Y10	Z10	X11	Y11	Z11	X12	Y12	Z12	X13	Y13	Z13	X14	Y14	Z14	X15	Y15	Z15	X16	Y16	Z16	X17	Y17	Z17	X18	Y18	Z18	X19	Y19	Z19	X20	Y20	Z20	X21	Y21	Z21	X22	Y22	Z22	X23	Y23	Z23	X24	Y24	Z24	X25	Y25	Z25
48	0.47000000	-2160.286133	1273.044922	299.014893	-2174.774902	1253.777710	-81.463318	-2221.433350	1346.788940	104.042572	-2109.025391	1254.767456	104.203201	-2206.027344	996.210510	395.599121	-2253.572021	974.109680	-127.608940	-2114.775269	789.025513	409.486313	-2114.740845	788.611450	-151.362137	-2125.944580	879.983704	248.242111	-2105.225342	869.606506	24.686989	-2302.085205	930.928101	110.960892	-2288.704346	1145.764282	112.839531	-2077.072510	1061.514160	128.727127	-2084.854492	545.080200	320.114227	-2057.665771	457.176056	266.264557	-2131.552246	294.644897	299.083527	-2231.801270	117.373283	215.612228	-2269.140137	134.514923	164.902390	-2118.509033	47.870117	190.960358	-2163.868408	525.443176	-58.719856	-2181.356201	426.751556	-1.080642	-2191.352539	243.669418	-55.367119	-2251.461426	48.457935	42.087326	-2296.751465	39.144642	86.764999	-2131.658691	34.729294	74.925865
49	0.48000000	-2150.346680	1272.083496	299.294617	-2162.667236	1253.522095	-81.378311	-2210.108398	1346.223877	104.060219	-2098.027100	1254.203369	104.622757	-2198.825928	995.561340	395.126129	-2238.124268	973.089172	-128.518677	-2111.016113	787.170929	411.108917	-2095.873901	790.153992	-150.455902	-2114.511963	879.750854	247.984665	-2094.400146	868.423218	24.560776	-2291.159424	930.319153	111.119606	-2277.758057	1145.212158	112.288216	-2066.226074	1060.933594	128.897995	-2069.087402	546.628418	319.654968	-2041.582520	458.705109	265.415009	-2106.643799	291.179382	298.934052	-2196.937500	108.394630	216.181229	-2235.001953	123.067886	165.204666	-2079.299805	46.217102	192.440704	-2157.916992	524.709412	-58.731342	-2176.978516	426.195953	-1.123343	-2189.039307	243.297729	-55.367374	-2251.193115	48.593651	42.174652	-2296.520752	39.548336	86.895432	-2131.416260	34.544804	74.946487
50	0.49000000	-2140.391602	1270.883301	299.618378	-2150.559082	1253.004517	-81.272896	-2198.752686	1345.429443	104.098160	-2086.980957	1253.388428	105.002663	-2191.582764	994.741272	394.767456	-2222.554688	971.843445	-129.415115	-2107.017944	785.299011	412.796005	-2077.046753	791.491943	-149.472076	-2103.016113	879.195984	247.735596	-2083.576660	867.041992	24.414856	-2280.220947	929.391418	111.411377	-2266.796387	1144.440430	111.825111	-2055.327637	1060.099609	129.055420	-2054.024170	547.613953	319.245361	-2026.377930	459.673462	264.669250	-2082.492188	287.734314	298.880188	-2161.515625	99.734657	216.780670	-2200.023193	111.849266	165.434692	-2039.962036	45.054214	194.105972	-2152.180176	523.958069	-58.834984	-2172.683105	425.652466	-1.255773	-2187.176270	242.974106	-55.526699	-2250.954102	48.767990	42.297665	-2296.301514	40.019043	87.110016	-2131.197998	34.367031	74.928841
51	0.50000000	-2130.384033	1269.452637	299.986267	-2138.432617	1252.237793	-81.130814	-2187.354248	1344.418579	104.160942	-2075.875732	1252.312256	105.349823	-2184.297607	993.760132	394.524597	-2206.862061	970.392090	-130.290634	-2102.766724	783.402466	414.530441	-2058.260010	792.624451	-148.399063	-2091.499023	878.334473	247.517181	-2072.763184	865.502625	24.253576	-2269.265869	928.157288	111.837494	-2255.819336	1143.463135	111.456673	-2044.396240	1058.994995	129.203461	-2039.746216	547.960449	318.887268	-2012.065674	460.027985	264.046753	-2059.245117	284.333099	298.973846	-2125.617188	91.561111	217.453110	-2164.328857	101.071846	165.674347	-2000.608643	44.551777	195.898285	-2146.603516	523.198914	-59.014332	-2168.448242	425.124817	-1.453854	-2185.663574	242.696930	-55.790195	-2250.745361	48.994640	42.475452	-2296.092041	40.571758	87.423950	-2131.004395	34.201958	74.877144
52	0.51000000	-2120.286133	1267.802979	300.395935	-2126.274414	1251.239380	-80.935936	-2175.903564	1343.208984	104.252571	-2064.706543	1250.971802	105.679001	-2176.965820	992.632324	394.398468	-2191.048340	968.760864	-131.134872	-2098.250732	781.480103	416.300186	-2039.515076	793.558746	-147.226906	-2079.945312	877.201050	247.347885	-2061.968506	863.847778	24.077072	-2258.286865	926.633606	112.404701	-2244.826416	1142.297119	111.186790	-2033.452148	1057.609497	129.344467	-2026.324219	547.602844	318.584290	-1998.641968	459.729584	263.560791	-2036.970337	280.970062	299.254944	-2089.363770	84.036781	218.242172	-2128.096436	90.942276	166.017944	-1961.401733	44.875877	197.764908	-2141.104736	522.436646	-59.246449	-2164.228760	424.617676	-1.687821	-2184.356934	242.464127	-56.093639	-2250.562012	49.289356	42.724560	-2295.881592	41.224224	87.844757	-2130.834229	34.052555	74.801003
53	0.52000000	-2110.064453	1265.949341	300.842499	-2114.075195	1250.030640	-80.672592	-2164.394531	1341.822632	104.378731	-2053.470459	1249.372803	106.008537	-2169.577393	991.375366	394.390259	-2175.119629	966.980347	-131.936859	-2093.458984	779.535217	418.097412	-2020.817505	794.307281	-145.948540	-2068.311035	875.838989	247.237915	-2051.195801	862.121155	23.881924	-2247.273682	924.844116	113.123337	-2233.814209	1140.962158	111.018944	-2022.509033	1055.943115	129.482727	-2013.808472	546.497498	318.345428	-1986.072632	458.759460	263.217346	-2015.635132	277.630890	299.741974	-2052.932129	77.317780	219.185379	-2091.565186	81.651840	166.559708	-1922.554688	46.157234	199.638428	-2135.590332	521.677063	-59.505360	-2159.961914	424.139709	-1.929475	-2183.101318	242.276184	-56.377434	-2250.395020	49.669704	43.055027	-2295.657715	41.997429	88.373199	-2130.685303	33.918858	74.713913
54	0.53000000	-2099.691895	1263.911377	301.320465	-2101.828369	1248.636108	-80.325356	-2152.826416	1340.283936	104.549316	-2042.166992	1247.531860	106.356987	-2162.115234	990.009399	394.500305	-2159.086914	965.084412	-132.685623	-2088.378906	777.574493	419.916351	-2002.178467	794.886200	-144.560349	-2056.554932	874.289185	247.186737	-2040.438110	860.366333	23.663668	-2236.213379	922.821960	114.005653	-2222.774658	1139.480469	110.957550	-2011.569824	1054.011597	129.627319	-2002.218994	544.631409	318.186951	-1974.285400	457.126953	263.013824	-1995.106812	274.320862	300.426819	-2016.561157	71.544022	220.306412	-2055.038818	73.365593	167.378983	-1884.329712	48.471535	201.434128	-2129.968262	520.930908	-59.766556	-2155.576660	423.701782	-2.157610	-2181.757568	242.137314	-56.596931	-2250.232666	50.154068	43.466660	-2295.408203	42.915169	89.002815	-2130.554688	33.799358	74.628937
55	0.54000000	-2089.149170	1261.714600	301.827759	-2089.529053	1247.083496	-79.879471	-2141.204834	1338.619019	104.778946	-2030.795410	1245.478394	106.740555	-2154.555908	988.556702	394.727661	-2142.966553	963.108887	-133.370026	-2082.996460	775.608490	421.751205	-1983.614075	795.314697	-143.061722	-2044.647705	872.585693	247.184753	-2029.682739	858.622925	23.419571	-2225.093018	920.611816	115.063721	-2211.696777	1137.876953	111.008255	-2000.627319	1051.847778	129.790329	-1991.535400	542.029541	318.130493	-1963.166748	454.881989	262.939148	-1975.176758	271.088623	301.277191	-1980.551514	66.825089	221.609558	-2018.879028	66.208527	168.523773	-1847.031372	51.828365	203.065201	-2124.161621	520.212646	-60.011055	-2151.000000	423.312927	-2.358900	-2180.221191	242.055893	-56.729301	-2250.062744	50.760574	43.946556	-2295.123535	44.001442	89.716896	-2130.436035	33.691948	74.553398
56	0.55000000	-2078.426025	1259.391846	302.368805	-2077.174316	1245.405273	-79.321991	-2129.540283	1336.856445	105.084923	-2019.354126	1243.254395	107.171883	-2146.868652	987.042542	395.071503	-2126.781250	961.092590	-133.979263	-2077.294067	773.651825	423.595932	-1965.144165	795.616241	-141.454597	-2032.572876	870.757080	247.218079	-2018.915039	856.924194	23.150623	-2213.898682	918.271118	116.306702	-2200.568848	1136.180054	111.178024	-1989.666870	1049.501831	129.983398	-1981.690308	538.759155	318.196930	-1952.565063	452.127502	262.974884	-1955.602905	268.035522	302.245178	-1945.265869	63.226749	223.077042	-1983.488892	60.248722	169.992920	-1810.998535	56.161171	204.459976	-2118.114990	519.536255	-60.228004	-2146.161377	422.976013	-2.526341	-2178.429932	242.044693	-56.776058	-2249.873047	51.506290	44.468937	-2294.795166	45.277473	90.485245	-2130.319580	33.594528	74.487068
57	0.56000000	-2067.522949	1256.984497	302.953827	-2064.763672	1243.639771	-78.642853	-2117.844727	1335.028809	105.484192	-2007.839722	1240.913452	107.661385	-2139.015869	985.496033	395.531677	-2110.562744	959.079285	-134.503494	-2071.251343	771.723053	425.445221	-1946.794373	795.822540	-139.744843	-2020.325806	868.830750	247.276337	-2008.118286	855.294189	22.862757	-2202.615479	915.869080	117.738075	-2189.378662	1134.423584	111.474609	-1978.667114	1047.038452	130.217010	-1972.567261	534.930908	318.397522	-1942.299316	449.021759	263.096222	-1936.162476	265.304901	303.275299	-1911.117310	60.756210	224.665573	-1949.295898	55.485847	171.727921	-1776.591919	61.318237	205.570236	-2111.792480	518.910950	-60.414642	-2140.994873	422.684998	-2.657997	-2176.354980	242.119003	-56.759308	-2249.649414	52.406345	44.997074	-2294.415771	46.760803	91.262917	-2130.192627	33.506081	74.424911
58	0.57000000	-2056.450439	1254.543457	303.597076	-2052.299316	1241.830811	-77.835320	-2106.127930	1333.173462	105.991249	-1996.248413	1238.517700	108.219032	-2130.955322	983.948853	396.107788	-2094.352295	957.117554	-134.933640	-2064.845703	769.843719	427.294815	-1928.598694	795.974670	-137.943520	-2007.912842	866.837830	247.357864	-1997.271118	853.747009	22.566219	-2191.226807	913.484253	119.352760	-2178.112305	1132.645264	111.904709	-1967.600830	1044.532593	130.501053	-1963.997192	530.700012	318.725677	-1932.173828	445.764008	263.272980	-1916.706299	263.049957	304.307922	-1878.546753	59.346313	226.301285	-1916.738892	51.853268	173.626221	-1744.177612	67.057419	206.367783	-2105.170410	518.339417	-60.572552	-2135.439453	422.424286	-2.755969	-2173.979980	242.291534	-56.712105	-2249.373535	53.474251	45.486084	-2293.979004	48.466946	91.992149	-2130.044189	33.427200	74.360840
59	0.58000000	-2045.226685	1252.130127	304.316711	-2039.785889	1240.027344	-76.896408	-2094.393555	1331.331665	106.617622	-1984.575195	1236.136108	108.854713	-2122.642822	982.434814	396.797241	-2078.197998	955.258911	-135.260986	-2058.054199	768.038269	429.141510	-1910.599731	796.118042	-136.064606	-1995.349365	864.814941	247.466675	-1986.346313	852.286987	22.273766	-2179.716797	911.198364	121.133728	-2166.750977	1130.885010	112.472229	-1956.435303	1042.065186	130.845520	-1955.754517	526.268555	319.152832	-1921.997314	442.565643	263.472595	-1897.205444	261.385956	305.281647	-1847.995728	58.846348	227.881958	-1886.253784	49.224125	175.564148	-1714.106323	73.050079	206.832718	-2098.224121	517.818115	-60.702461	-2129.438965	422.172577	-2.825480	-2171.276855	242.567520	-56.668133	-2249.021240	54.724636	45.886417	-2293.477295	50.413113	92.607353	-2129.866211	33.359428	74.289551
60	0.59000000	-2033.875732	1249.813599	305.133942	-2027.231445	1238.281616	-75.827209	-2082.638672	1329.547241	107.371948	-1972.814331	1233.841797	109.578621	-2114.034424	980.990417	397.594055	-2062.156250	953.555115	-135.475998	-2050.856384	766.334045	430.983856	-1892.846497	796.297882	-134.121845	-1982.655029	862.803650	247.605637	-1975.313965	850.910156	21.999796	-2168.068359	909.088379	123.048904	-2155.274658	1129.181641	113.178177	-1945.134644	1039.717529	131.260880	-1947.551880	521.885071	319.631012	-1911.599731	439.617249	263.664612	-1877.779297	260.344269	306.134857	-1819.877930	59.026386	229.291321	-1858.252808	47.413002	177.410110	-1686.692627	78.900276	206.941345	-2090.919189	517.340149	-60.802502	-2122.940186	421.909180	-2.874787	-2168.196289	242.944702	-56.656094	-2248.562500	56.176071	46.149666	-2292.901123	52.622734	93.043510	-2129.651367	33.303898	74.207306
